<?xml version="1.0" encoding="iso-8859-1"?>
<!-- Generator: Adobe Illustrator 19.0.0, SVG Export Plug-In . SVG Version: 6.00 Build 0)  -->
<svg version="1.1" id="Layer_1" xmlns="http://www.w3.org/2000/svg" xmlns:xlink="http://www.w3.org/1999/xlink" x="0px" y="0px"
	 viewBox="0 0 512 512" style="enable-background:new 0 0 512 512;" xml:space="preserve">
<g>
	<g>
		<path d="M421.838,192.771c-6.408-21.387-20.76-39-40.413-49.592c-19.654-10.593-42.255-12.896-63.642-6.49
			c-5.162,1.547-10.1,3.566-14.776,6.001l-60.623-89.877l13.904-4.166c2.525-0.757,4.506-2.725,5.277-5.246l8.874-28.999
			c1.274-4.165-1.069-8.573-5.234-9.847c-4.16-1.271-8.573,1.069-9.847,5.234l-7.639,24.964l-20.11,6.024
			c-5.016,1.491-7.225,7.624-4.294,11.97l38.348,56.853l-137.014,41.046l-42.158-49.93l12.651-3.79
			c4.172-1.249,6.541-5.645,5.291-9.817s-5.642-6.542-9.817-5.291l-24.227,7.259c-0.013,0.004-0.025,0.007-0.038,0.01l-12.893,3.863
			l-7.595-4.094c-3.832-2.067-8.616-0.635-10.683,3.199c-2.066,3.833-0.634,8.616,3.199,10.682l10.471,5.644
			c1.826,0.985,4.017,1.208,6.004,0.613l11.162-3.344l47.879,56.706l-10.775,46.417c-11.433-1.554-23.361-0.778-35.114,2.743
			c-44.15,13.226-69.308,59.907-56.083,104.057c10.84,36.181,44.141,59.606,80.111,59.606c7.921,0,15.976-1.137,23.944-3.524
			c21.387-6.407,38.999-20.76,49.592-40.413c5.659-10.499,8.927-21.841,9.792-33.389l43.287-9.884
			c1.337-0.241,2.721-0.513,4.008-0.963c8.336-2.583,15.201-8.22,19.348-15.915c4.197-7.787,5.111-16.742,2.572-25.216
			c-0.875-2.919-2.13-5.654-3.709-8.166l32.065-111.397l16.841,24.968c-8.764,6.957-16.117,15.675-21.586,25.823
			c-10.593,19.652-12.897,42.255-6.49,63.642c6.407,21.388,20.76,39,40.413,49.593c12.362,6.663,25.887,10.047,39.545,10.046
			c8.062,0,16.167-1.179,24.103-3.556C409.904,283.602,435.064,236.922,421.838,192.771z M114.894,227.79
			c10.537,3.798,20.062,10.167,27.616,18.579l-34.961,13.066L114.894,227.79z M94.556,300.146
			c-4.719,1.418-9.711-1.276-11.126-5.996c-1.414-4.721,1.275-9.712,5.996-11.126c4.719-1.41,9.713,1.276,11.127,5.996
			C101.968,293.74,99.277,298.732,94.556,300.146z M151.688,323.759c-8.594,15.945-22.883,27.589-40.235,32.789
			c-35.82,10.73-73.692-9.682-84.423-45.501c-10.73-35.82,9.681-73.692,45.501-84.423c9.028-2.705,18.186-3.426,27.008-2.427
			l-9.935,42.799c-1.567,0.152-3.141,0.453-4.703,0.921c-13.051,3.91-20.487,17.708-16.578,30.759
			c1.895,6.322,6.137,11.528,11.946,14.658c5.748,3.099,12.024,3.531,18.305,2.052l60.525-13.82
			C157.954,309.235,155.476,316.731,151.688,323.759z M116.437,295.132c0.507-3.457,0.29-7.075-0.777-10.638
			c-1.067-3.562-2.877-6.703-5.201-9.311l41.392-15.468c2.069,3.889,3.791,8.033,5.103,12.409c1.302,4.344,2.159,8.752,2.58,13.167
			L116.437,295.132z M158.145,240.526c-10.203-13.186-24.094-22.933-39.67-28.164l8.117-34.965l48.086,56.951L158.145,240.526z
			 M174.994,281.761c-0.572-4.749-1.532-9.486-2.932-14.162c-1.41-4.708-3.222-9.185-5.349-13.438l13.641-5.098
			c-1,5.1-0.819,10.505,0.773,15.819c1.562,5.216,4.322,9.862,8.026,13.646L174.994,281.761z M217.967,271.948
			c-4.289,0.979-8.432,1.049-12.519-0.881c-4.432-2.093-7.809-6.015-9.215-10.71c-2.52-8.414,1.688-17.256,9.486-20.773
			c2.573-0.962,5.122-1.664,7.896-1.542c2.655,0.117,5.279,0.86,7.606,2.142c3.967,2.186,6.95,5.877,8.249,10.217
			C232.199,259.517,227.042,269.147,217.967,271.948z M227.865,225.87c-7.529-3.835-16.081-4.653-24.214-2.3
			c-0.026,0.006-0.053,0.015-0.079,0.022c-0.075,0.022-0.15,0.039-0.226,0.062c-1.292,0.387-2.538,0.855-3.746,1.382l-9.232,3.45
			l-54.628-64.699l120.376-36.061L227.865,225.87z M361.229,281.721c-17.356,5.198-35.689,3.328-51.635-5.265
			c-15.945-8.594-27.589-22.884-32.788-40.236s-3.329-35.689,5.265-51.635c4.237-7.861,9.864-14.67,16.554-20.183l24.438,36.231
			c-1.153,1.344-2.184,2.808-3.045,4.404c-3.132,5.81-3.813,12.492-1.919,18.813c3.205,10.696,13.049,17.62,23.68,17.62
			c2.342,0,4.723-0.336,7.078-1.042c13.05-3.91,20.486-17.707,16.578-30.758c-3.712-12.39-16.34-19.71-28.773-17.077L311.9,155.879
			c15.306-7.47,33.104-8.972,49.409-4.037c13.522,4.093,25.641,12.426,34.257,23.627c5.015,6.519,8.803,13.951,11.164,21.829
			C417.46,233.117,397.048,270.99,361.229,281.721z M333.901,212.519c1.132-2.102,3.014-3.636,5.302-4.32
			c4.662-1.398,9.729,1.337,11.126,5.995c1.414,4.721-1.276,9.712-5.996,11.126c-4.722,1.418-9.712-1.276-11.126-5.996
			C332.521,217.036,332.769,214.619,333.901,212.519z"/>
	</g>
</g>
<g>
	<g>
		<path d="M508.845,232.887c-3.486-2.613-8.427-1.906-11.039,1.577l-72.397,96.53l-78.838-23.652
			c-2.401-0.719-4.996-0.258-6.997,1.245l-33.644,25.233c-3.169,2.376-4.079,6.894-2.066,10.308
			c2.354,3.991,7.816,5.093,11.528,2.309l30.461-22.846l80.297,24.089c3.168,0.952,6.591-0.176,8.574-2.822l75.7-100.933
			C513.036,240.443,512.329,235.501,508.845,232.887z"/>
	</g>
</g>
<g>
	<g>
		<path d="M289.883,355.709c-2.576-3.437-7.599-4.154-11.037-1.576l-69.232,51.925l-54.181-38.7
			c-2.987-2.134-7.05-1.923-9.801,0.504L2.643,494.027c-3.009,2.657-3.521,7.296-1.165,10.543c2.692,3.71,8.159,4.318,11.599,1.283
			l138.288-122.019l53.777,38.411c2.798,1.999,6.567,1.955,9.314-0.108l73.849-55.388
			C291.743,364.17,292.461,359.147,289.883,355.709z"/>
	</g>
</g>
<g>
</g>
<g>
</g>
<g>
</g>
<g>
</g>
<g>
</g>
<g>
</g>
<g>
</g>
<g>
</g>
<g>
</g>
<g>
</g>
<g>
</g>
<g>
</g>
<g>
</g>
<g>
</g>
<g>
</g>
</svg>
