<svg width="20px" height="20px" viewBox="0 0 240 240" xmlns="http://www.w3.org/2000/svg">
<g id="Layer_1">
  <title>Layer 1</title>
  <rect stroke-width="15" id="svg_2" height="201.30436" width="138.26087" y="19.34782" x="50.86956" stroke="#000" fill="none"/>
  <rect id="svg_4" height="93.04348" width="36.08696" y="73.47826" x="169.56522" stroke-width="8" stroke="#ffffff" fill="#ffffff"/>
  <path id="svg_3" d="m193.17154,137.31656l7.81895,-10.69552l-15.11756,0l-15.11752,0l0,-6.62103l0,-6.62104l14.94409,0c8.21924,0 14.94408,-0.33559 14.94408,-0.74575c0,-0.41015 -3.27205,-5.22314 -7.27122,-10.69552l-7.27125,-9.94978l6.72085,0l6.72083,0l10.26423,14.01946l10.26422,14.01945l-10.28391,13.99263l-10.28391,13.99263l-7.07542,0l-7.07544,0l7.81897,-10.69553l0,0z" stroke-width="8" stroke="#000" fill="#000000"/>
  <rect id="svg_7" height="11.1465" width="37.54629" y="114.39489" x="135.31995" stroke-width="10" stroke="#000" fill="#000000"/>
 </g>
</svg>